<?xml version="1.0" ?><svg viewBox="0 0 64 64" xmlns="http://www.w3.org/2000/svg"><defs><style>.cls-1{fill:#0072ff;}</style></defs><title/><g data-name="Layer 2" id="Layer_2"><path class="cls-1" d="M58.36,56.3h-52a2,2,0,0,0,0,4h52a2,2,0,0,0,0-4Z"/><path class="cls-1" d="M8.36,24.3a2,2,0,1,0,0,4,2,2,0,0,1,2,2,2,2,0,0,0,4,0,2,2,0,1,1,4,0,2,2,0,0,0,4,0,2,2,0,0,1,4,0,2,2,0,0,0,4,0,2,2,0,0,1,4,0,2,2,0,0,0,4,0,2,2,0,0,1,4,0,2,2,0,0,0,4,0,2,2,0,0,1,4,0,2,2,0,0,0,4,0,2,2,0,0,1,2-2,2,2,0,0,0,0-4h-48Z"/><path class="cls-1" d="M52,36.3h-.64a1,1,0,0,1-1-1,1,1,0,0,0-1-1h-2a1,1,0,0,0-1,1,1,1,0,0,1-1,1h-2a1,1,0,0,1-1-1,1,1,0,0,0-1-1h-2a1,1,0,0,0-1,1,1,1,0,0,1-1,1h-2a1,1,0,0,1-1-1,1,1,0,0,0-1-1h-2a1,1,0,0,0-1,1,1,1,0,0,1-1,1h-2a1,1,0,0,1-1-1,1,1,0,0,0-1-1h-2a1,1,0,0,0-1,1,1,1,0,0,1-1,1h-2a1,1,0,0,1-1-1,1,1,0,0,0-1-1h-2a1,1,0,0,0-1,1,1,1,0,0,1-1,1h-.64a2.36,2.36,0,0,0-2.36,2.36V49.59a2.7,2.7,0,0,0,2.7,2.7H51.66a2.7,2.7,0,0,0,2.7-2.7V38.65A2.36,2.36,0,0,0,52,36.3Zm-35.64,10a2,2,0,1,1,2-2A2,2,0,0,1,16.36,46.3Zm8,0a2,2,0,1,1,2-2A2,2,0,0,1,24.36,46.3Zm8,0a2,2,0,1,1,2-2A2,2,0,0,1,32.36,46.3Zm8,0a2,2,0,1,1,2-2A2,2,0,0,1,40.36,46.3Zm8,0a2,2,0,1,1,2-2A2,2,0,0,1,48.36,46.3Z"/><path class="cls-1" d="M22.36,15.3a1,1,0,0,0,1,1,1,1,0,0,1,1,1v4a1,1,0,0,0,1,1h2a1,1,0,0,0,1-1v-4a1,1,0,0,1,1-1,1,1,0,1,0,0-2h-6A1,1,0,0,0,22.36,15.3Z"/><path class="cls-1" d="M29.56,9.72a3.18,3.18,0,0,0-.75-2.06,11.43,11.43,0,0,1-1.29-1.74l-.8-1.42a.41.41,0,0,0-.72,0L25.19,6a10.82,10.82,0,0,1-1.26,1.69,3.19,3.19,0,0,0-.73,2.51A3.23,3.23,0,0,0,25,12.63a1.58,1.58,0,0,1-.29-.69,1.62,1.62,0,0,1,.37-1.27,5.49,5.49,0,0,0,.64-.86l.41-.74a.21.21,0,0,1,.36,0l.4.72a5.8,5.8,0,0,0,.66.88,1.6,1.6,0,0,1,.1,1.94A3.19,3.19,0,0,0,29.56,9.72Z"/><path class="cls-1" d="M34.36,15.3a1,1,0,0,0,1,1,1,1,0,0,1,1,1v4a1,1,0,0,0,1,1h2a1,1,0,0,0,1-1v-4a1,1,0,0,1,1-1,1,1,0,0,0,0-2h-6A1,1,0,0,0,34.36,15.3Z"/><path class="cls-1" d="M41.56,9.72a3.18,3.18,0,0,0-.75-2.06,11.43,11.43,0,0,1-1.29-1.74l-.8-1.42a.41.41,0,0,0-.72,0L37.19,6a10.82,10.82,0,0,1-1.26,1.69,3.19,3.19,0,0,0-.73,2.51A3.23,3.23,0,0,0,37,12.63a1.58,1.58,0,0,1-.29-.69,1.62,1.62,0,0,1,.37-1.27,5.49,5.49,0,0,0,.64-.86l.41-.74a.21.21,0,0,1,.36,0l.4.72a5.8,5.8,0,0,0,.66.88,1.6,1.6,0,0,1,.1,1.94A3.19,3.19,0,0,0,41.56,9.72Z"/></g></svg>