<svg width="49" height="59" xmlns="http://www.w3.org/2000/svg">
 <!-- Created with Method Draw - http://github.com/duopixel/Method-Draw/ -->
 <g>
  <title>background</title>
  <rect fill="none" id="canvas_background" height="61" width="51" y="-1" x="-1"/>
  <g display="none" overflow="visible" y="0" x="0" height="100%" width="100%" id="canvasGrid">
   <rect fill="url(#gridpattern)" stroke-width="0" y="0" x="0" height="100%" width="100%"/>
  </g>
 </g>
 <g>
  <title>Layer 1</title>
  <path d="m12.82168,9.56994c0,0.13986 -0.11849,0.14564 -0.27972,0.6993c-0.24731,0.84928 -0.61069,2.78792 -0.83916,4.1958c-0.18062,1.11303 -0.13986,1.95804 -0.13986,2.65734c0,0.27972 0,0.41958 0,0.6993c0,0.13986 0.10773,0.1436 0.13986,0.27972c0.07185,0.30437 0.09698,0.48375 0.27972,0.55944c0.12921,0.05352 0.13986,0.13986 0.27972,0.27972c0.13986,0.13986 0.23684,0.34389 0.41958,0.41958c0.12921,0.05352 0.29037,0.05352 0.41958,0c0.18274,-0.07569 0.23672,-0.30573 0.41958,-0.55944c0.11565,-0.16046 0.27972,-0.27972 0.41958,-0.41958c0.13986,-0.13986 0.16407,-0.25912 0.27972,-0.41958c0.18286,-0.25371 0.13986,-0.55944 0.13986,-0.83916c0,-0.27972 -0.10648,-1.12513 -0.27972,-1.95804c-0.11742,-0.56458 -0.27972,-1.53846 -0.27972,-1.67832c0,-0.13986 -0.15606,-0.41452 -0.27972,-0.83916c-0.16123,-0.55366 -0.34912,-1.24584 -0.41958,-1.81818c-0.06835,-0.55525 0,-0.6993 0,-0.83916l0,-0.13986" id="svg_1" stroke-width="0" stroke="#000" fill="#8fb743"/>
  <path d="m19.25525,15.86364c0,0.13986 -0.03837,0.54335 -0.13986,0.83916c-0.46288,1.3491 -0.7692,2.79393 -0.83916,5.03496c-0.04364,1.39792 0.05406,2.28495 0.6993,3.35664c0.62058,1.03072 1.4951,2.00341 2.51748,2.93706c0.80661,0.73661 1.53846,1.11888 1.67832,1.11888c0.27972,0 0.31448,-0.14094 0.27972,-0.6993c-0.07006,-1.12541 -0.46819,-2.64217 -0.83916,-3.91608c-0.48368,-1.66098 -0.74998,-2.58331 -1.53846,-4.8951c-0.3723,-1.09157 -0.97902,-2.23776 -1.25874,-2.93706l-0.13986,-0.27972l-0.13986,-0.13986" id="svg_2" stroke-width="0" stroke="#000" fill="#8fb743"/>
  <path d="m14.08043,25.51399c-0.13986,0.13986 -0.27972,0.27972 -0.41958,0.55944c-0.13986,0.27972 -0.58117,0.82152 -1.25874,1.67832c-0.43377,0.54851 -0.76346,1.32465 -0.97902,2.23776c-0.22493,0.95283 0.05386,1.73035 0.41958,2.23776c0.2313,0.32092 0.67061,0.7301 1.11888,1.11888c0.52829,0.45818 0.6993,0.55944 0.83916,0.55944c0.27972,0 0.59059,-0.24112 1.11888,-0.6993c0.74711,-0.64797 1.46661,-1.23409 1.53846,-1.53846c0.03213,-0.13612 0.08082,-0.3064 -0.13986,-0.83916c-0.31208,-0.75344 -0.91593,-1.37259 -1.11888,-2.0979c-0.22924,-0.81927 -0.32692,-1.44196 -0.55944,-1.81818c-0.10399,-0.16825 -0.27972,-0.41958 -0.41958,-0.41958l0,-0.13986" id="svg_3" stroke-width="0" stroke="#000" fill="#8fb743"/>
  <path d="m31.56293,22.57693c-0.13986,0 -0.55838,0.81337 -0.6993,1.95804c-0.11962,0.97168 -0.05513,1.68104 0,2.23776c0.07027,0.70968 0.47152,1.08346 0.83916,1.67832c0.16442,0.26603 0.29341,0.53489 0.55944,0.6993c0.11897,0.07353 0.27972,0 0.41958,-0.27972c0.13986,-0.27972 0.48933,-0.97157 0.55944,-1.95804c0.04957,-0.69754 -0.55944,-2.7972 -1.25874,-4.05594l-0.27972,-0.27972l-0.13986,0" id="svg_4" stroke-width="0" stroke="#000" fill="#8fb743"/>
  <path transform="rotate(166.04969787597656 26.619129180908207,40.8235092163086) " d="m24.84965,35.72377c0,0.13986 0.08002,0.26271 0.27972,1.3986c0.70605,4.016 0.97192,6.48841 1.81818,8.53146c0.11968,0.28893 0.3383,0.361 0.55944,0.13986c0.66341,-0.66342 0.69862,-1.79742 0.83916,-3.21678c0.11025,-1.11343 0.0019,-2.68437 -0.27972,-3.77622c-0.18811,-0.7293 -0.39493,-1.32675 -0.6993,-1.3986c-0.13612,-0.03213 -0.29341,-0.25517 -0.55944,-0.41958c-0.59486,-0.36764 -0.83916,-0.6993 -0.83916,-0.83916l-0.13986,0" id="svg_5" stroke-width="0" stroke="#000" fill="#8fb743"/>
  <path transform="rotate(177.90744018554688 23.90902328491211,14.894668579101562) " d="m23.45105,11.38812c-0.27972,0.41958 -0.49904,0.94379 -0.83916,1.81818c-0.36912,0.94893 -0.61238,1.98049 -0.41958,2.7972c0.21556,0.91311 0.61406,1.61005 0.97902,1.95804c0.59021,0.56278 1.87676,0.50086 2.0979,0.27972c0.44228,-0.44228 0.41958,-0.97902 0.41958,-1.25874c0,-0.13986 0.06381,-0.58848 -0.27972,-1.25874c-0.83174,-1.62282 -1.63834,-2.26737 -1.95804,-2.65734c-0.1254,-0.15296 -0.13986,-0.27972 -0.27972,-0.27972l-0.27972,-0.41958l-0.13986,-0.13986" id="svg_6" stroke-width="0" stroke="#000" fill="#8fb743"/>
  <path d="m17.85665,7.33218c-0.13986,0.13986 -0.77609,0.78411 -1.25874,1.53846c-0.50565,0.79029 -0.8378,1.64899 -0.97902,2.65734c-0.0388,0.27702 0.11926,0.25551 0.27972,0.13986c0.25371,-0.18286 1.05354,-0.61851 1.81818,-1.3986c0.62688,-0.63954 0.64578,-0.98967 0.6993,-1.11888c0.07569,-0.18274 0.32213,-0.38732 0.41958,-0.55944c0.28412,-0.50181 0.27972,-1.11888 0.27972,-1.53846c0,-0.27972 -0.04096,-0.32068 -0.13986,-0.41958c-0.0989,-0.0989 -0.27972,0 -0.41958,0c-0.13986,0 -0.27972,0 -0.41958,0c-0.13986,0 -0.27972,0 -0.27972,-0.13986l-0.27972,0l-0.41958,0l-0.13986,0" id="svg_7" stroke-width="0" stroke="#000" fill="#8fb743"/>
  <path d="m30.16433,32.64685c0,0.13986 0,0.55944 0,0.97902c0,0.13986 0.13546,1.17651 0.41958,1.67832c0.29236,0.51636 1.076,1.18305 1.25874,1.25874c0.25842,0.10704 0.74269,-0.38028 1.11888,-0.83916c0.3197,-0.38998 0.38551,-0.84925 0.27972,-1.3986c-0.14243,-0.73958 -1.01017,-1.22014 -1.53846,-1.67832c-0.14942,-0.12959 -0.27972,-0.13986 -0.41958,-0.13986l-0.13986,0" id="svg_8" stroke-width="0" stroke="#000" fill="#8fb743"/>
  <path transform="rotate(127.43819427490234 17.649263381958008,42.34947204589844) " d="m19.53497,37.26223c-0.13986,0 -0.31142,-0.08867 -0.41958,0c-0.55151,0.45213 -0.47947,1.31795 -1.11888,2.0979c-0.37619,0.45888 -0.6993,0.83916 -1.11888,1.67832c-0.6993,1.3986 -1.14855,2.9304 -1.11888,4.33566c0.02088,0.98874 0.47369,1.94652 0.83916,2.0979c0.12921,0.05352 0.6993,-0.41958 1.53846,-1.25874c0.97902,-0.97902 1.32776,-1.52147 1.3986,-1.95804c0.04481,-0.27611 -0.16407,-0.6787 -0.27972,-0.83916c-0.18286,-0.2537 -0.34272,-0.34273 -0.6993,-0.6993c-0.35657,-0.35658 -0.6993,-1.11888 -1.11888,-1.3986l-0.13986,-0.13986l-0.13986,-0.13986l0,-0.13986" id="svg_9" stroke-width="0" stroke="#000" fill="#8fb743"/>
  <line transform="rotate(112.5471420288086 18.276227951049805,45.65383529663086) " stroke-linecap="undefined" stroke-linejoin="undefined" id="svg_10" y2="43.13636" x2="21.07343" y1="48.17132" x1="15.47903" stroke="#000" fill="none"/>
  <line stroke="#000" transform="rotate(-32.68140411376953 28.625867843627926,46.00350570678711) " stroke-linecap="undefined" stroke-linejoin="undefined" id="svg_11" y2="43.55594" x2="28.90559" y1="48.45104" x1="28.34615" fill="none"/>
  <line stroke-linecap="undefined" stroke-linejoin="undefined" id="svg_12" y2="30.68881" x2="33.52097" y1="27.61189" x1="31.56293" fill-opacity="null" stroke-opacity="null" stroke-width="null" stroke="#000" fill="none"/>
  <line stroke-linecap="undefined" stroke-linejoin="undefined" id="svg_13" y2="40.05943" x2="33.94055" y1="35.72377" x1="31.84265" fill-opacity="null" stroke-opacity="null" stroke-width="null" stroke="#000" fill="none"/>
  <line stroke-linecap="undefined" stroke-linejoin="undefined" id="svg_14" y2="36.70279" x2="12.12238" y1="32.22727" x1="13.38113" fill-opacity="null" stroke-opacity="null" stroke-width="null" stroke="#000" fill="none"/>
  <line stroke-linecap="undefined" stroke-linejoin="undefined" id="svg_15" y2="23.55595" x2="11.98252" y1="17.68183" x1="12.40211" fill-opacity="null" stroke-opacity="null" stroke-width="null" stroke="#000" fill="none"/>
  <line stroke-linecap="undefined" stroke-linejoin="undefined" id="svg_16" y2="15.58392" x2="16.45805" y1="10.4091" x1="16.17833" fill-opacity="null" stroke-opacity="null" stroke-width="null" stroke="#000" fill="none"/>
  <line stroke-linecap="undefined" stroke-linejoin="undefined" id="svg_17" y2="32.36713" x2="20.65385" y1="26.63287" x1="22.47203" fill-opacity="null" stroke-opacity="null" stroke-width="null" stroke="#000" fill="none"/>
  <line transform="rotate(39.62287902832031 24.849647521972656,18.311195373535156) " stroke-linecap="undefined" stroke-linejoin="undefined" id="svg_18" y2="16.42309" x2="23.45105" y1="20.19931" x1="26.24825" fill-opacity="null" stroke-opacity="null" stroke-width="null" stroke="#000" fill="none"/>
  <text stroke="#000" transform="matrix(0.28528661581200865,0,0,0.21856636725887313,8.042209610152188,23.571232445965837) " font-weight="bold" xml:space="preserve" text-anchor="start" font-family="Oswald, sans-serif" font-size="24" id="svg_20" y="148.68016" x="24.5203" stroke-opacity="null" stroke-width="0" fill="#000000">Leaves</text>
 </g>
</svg>