<svg width="49" height="59.00000000000001" xmlns="http://www.w3.org/2000/svg">
 <!-- Created with Method Draw - http://github.com/duopixel/Method-Draw/ -->
 <g>
  <title>background</title>
  <rect fill="none" id="canvas_background" height="61" width="51" y="-1" x="-1"/>
  <g display="none" overflow="visible" y="0" x="0" height="100%" width="100%" id="canvasGrid">
   <rect fill="url(#gridpattern)" stroke-width="0" y="0" x="0" height="100%" width="100%"/>
  </g>
 </g>
 <g>
  <title>Layer 1</title>
  <rect id="svg_1" height="50.39212" width="36.86272" y="1.57455" x="5.9217" stroke-width="0" stroke="#000" fill="#7f3f00"/>
  <path d="m10.5984,5.07209c-0.11442,0 -0.13865,0.044 -0.22883,0.11442c-0.37184,0.29032 -0.47263,1.02494 -0.6865,1.71625c-0.24618,0.79576 -0.45556,1.34005 -0.57208,1.94508c-0.08655,0.44941 -0.04379,0.58079 0,0.6865c0.06192,0.14949 0.34325,0.22883 0.45767,0.34325l0.11442,0.11442l0.11442,0" id="svg_2" stroke-width="0" stroke="#000" fill="#e82525"/>
  <path d="m14.37414,15.71282c0,0.11442 0.11442,0.11442 0.11442,0.22883c0,0.11442 0.22734,0.65871 0.34325,1.373c0.10997,0.67763 0,1.25858 0,1.71625l0,0.11442" id="svg_3" stroke-width="0" stroke="#000" fill="none"/>
  <path d="m37.94393,11.93708c0.11442,0 0.17626,0.00612 0.22883,0.22883c0.05878,0.249 0.15303,0.49314 0.34325,0.80091c0.17014,0.27529 0.39971,0.78702 0.45767,1.14417c0.05498,0.33882 0,0.45766 0,0.57208c0,0.11442 -0.24719,0.56788 -0.34325,1.02975c-0.14172,0.68139 -0.34325,1.14417 -0.45767,1.60183l-0.11441,0.11442l-0.11442,0" id="svg_5" stroke-width="0" stroke="#000" fill="#e82525"/>
  <path d="m13.57323,24.75172c-0.22883,0.34325 -0.26185,0.55701 -0.45767,1.02975c-0.27692,0.66855 -1.02748,1.8839 -1.48741,2.86041c-0.15417,0.32733 -0.11442,0.45767 -0.11442,0.57208l0,0.11442l0,0.11442" id="svg_6" stroke-width="0" stroke="#000" fill="#e82525"/>
  <path d="m29.13387,35.96453c0.22883,0.11442 0.36943,0.1979 0.91533,0.6865c0.48228,0.43166 0.95082,0.76876 1.25858,1.14417c0.26154,0.31903 0.6666,0.81333 1.02975,1.373c0.76021,1.1716 0.76373,1.55835 1.14417,2.17391c0.08507,0.13764 0.10571,0.18505 0,0.22883c-0.14949,0.06192 -0.22884,0.11441 -0.34325,0.22883l0,0.11442l-0.11442,0.11441" id="svg_7" stroke-width="0" stroke="#000" fill="#e82525"/>
  <path d="m11.05607,39.62585c0,0.11442 0,0.22883 0,0.34325c0,0.11441 0,0.34325 0,0.45766c0,0.11442 0.05662,0.57442 0,1.25858c-0.0574,0.6936 -0.11442,1.25858 -0.11442,1.60183l0,0.22883" id="svg_8" stroke-width="0" stroke="#000" fill="#e82525"/>
  <path d="m29.59153,20.63273c0.22883,0.22883 0.43306,0.48368 0.91533,0.91533c0.5459,0.4886 1.50508,1.90488 2.40275,2.97483c0.52,0.6198 0.64271,0.92404 0.6865,1.02975c0.06192,0.14949 0.22883,0.57208 0.45766,0.91533l0,0.11442" id="svg_9" stroke-width="0" stroke="#000" fill="#e82525"/>
  <path d="m22.3833,5.64417c0.11442,0.22883 0.11442,0.34325 0.11442,0.57208c0,0.6865 0.22883,1.60183 0.34325,2.17391c0.11442,0.57208 0.17119,1.13361 0.22883,1.60183c0.05592,0.45424 0,0.91533 0,1.02975l0,0.11442l-0.11442,0" id="svg_10" stroke-width="0" stroke="#000" fill="#e82525"/>
  <path d="m13.91648,36.76544c0,0.11442 0.02255,0.22995 0,0.45767c-0.11498,1.16114 -0.53025,2.51881 -0.45767,4.11899c0.05727,1.26247 0.34325,2.17391 0.57208,2.86041l0.11442,0.45767l0.11442,0.11441" id="svg_11" stroke-width="0" stroke="#000" fill="#e82525"/>
  <path d="m14.48856,13.99657c0,0 0.13132,0.56561 0.34325,1.14416c0.2489,0.67948 0.34325,1.25858 0.57208,1.94508l0,0.57208l0,0.34325l0,0.11442" id="svg_12" stroke-width="0" stroke="#000" fill="#e82525"/>
  <path d="m34.39702,30.35812c0.11442,0 0.40856,0.30258 1.02975,1.373c0.77048,1.32769 1.42351,2.72602 1.94508,4.11899c0.50749,1.35537 1.14417,3.08924 1.25858,3.77574l0.11441,0.57208l0,0.11441" id="svg_13" stroke-width="0" stroke="#000" fill="#e82525"/>
  <path d="m21.6968,20.17506c0,0.22883 -0.15895,0.92126 0,1.94508c0.17901,1.15301 0.44964,2.63262 0.57208,3.54691c0.10739,0.80189 0.34325,1.71625 0.34325,1.83066l0.11442,0" id="svg_14" stroke-width="0" stroke="#000" fill="#e82525"/>
  <path d="m7.62357,17.20023c0.11442,0.11442 0.2975,0.49586 0.6865,0.91533c0.82703,0.8918 2.4616,2.22676 3.66133,3.43249c1.08574,1.09118 1.83066,2.0595 2.40275,2.746l0.11442,0.11442" id="svg_15" stroke-width="0" stroke="#000" fill="#e82525"/>
  <path d="m21.58238,41.68535c0,0.34325 -0.11765,1.13685 1.02975,3.31808c0.57616,1.09531 0.97097,1.58167 1.02975,1.83067c0.02629,0.11135 0,0.45766 0,0.91533c0,0.34325 0.03518,0.59336 -0.11442,0.80091c-0.09461,0.13127 -0.26235,0.03351 -0.34325,0.11442c-0.08091,0.08091 -0.08757,0.47508 0,0.6865c0.06192,0.14949 0.29553,0.62416 0.91533,1.14416c1.06994,0.89766 1.9281,1.37244 3.08924,1.48742c1.25246,0.12402 2.17391,-0.22883 2.74599,-0.45766l0.11442,-0.22884l0.11442,-0.11441" id="svg_16" stroke-width="0" stroke="#000" fill="#e82525"/>
  <path d="m8.76774,45.11784c0.11442,0 0.20342,0.0401 0.57208,0.57208c0.78746,1.13631 0.80091,2.40274 0.91533,3.43249l0,0.11442l0,0.11442l-0.11442,0" id="svg_17" stroke-width="0" stroke="#000" fill="#e82525"/>
  <path d="m37.48627,3.12701c-0.22883,0.22883 -0.61879,0.89947 -1.25858,2.86041c-0.74103,2.27126 -0.80092,3.66133 -0.80092,4.69107l0.11442,0.34325l0.11442,0.11442" id="svg_18" stroke-width="0" stroke="#000" fill="#e82525"/>
  <path d="m18.72197,3.47026c0.11442,0.22883 0.22883,1.14416 0.22883,2.28833c0,0.91533 0.11442,1.60183 0.11442,2.17391l0,0.34325l0.11442,0" id="svg_19" stroke-width="0" stroke="#000" fill="#f93b3b"/>
  <path d="m13.80206,10.90733c0.22883,0.80091 0.25751,2.3466 0.91533,4.23341c0.7077,2.02986 1.14417,2.40275 1.14417,2.51716l0.11442,0" id="svg_20" stroke-width="0" stroke="#000" fill="#f93b3b"/>
  <path d="m29.3627,14.9119c0.11442,0 0.11442,0.57208 0.34325,2.63158l0.11442,2.17391l0.11442,1.02975l0,0.45767" id="svg_21" stroke-width="0" stroke="#000" fill="#f93b3b"/>
  <path d="m21.58238,29.21396c0,0.11442 -0.18413,0.32008 -0.34325,0.91533c-0.20893,0.7816 -0.34309,2.27932 -0.45766,4.46224c-0.04798,0.91407 0.22883,1.25858 0.34325,1.373l0,0.11442l0.11442,0" id="svg_22" stroke-width="0" stroke="#000" fill="#f93b3b"/>
  <path d="m19.6373,13.31007c0,0.11442 0.51365,1.70663 0.80091,3.54691c0.14227,0.91142 0.22883,1.48741 0.22883,1.60183l-0.11442,0" id="svg_23" stroke-width="0" stroke="#000" fill="#f93b3b"/>
  <path d="m36.79977,41.57093c0.11442,0 0.28785,0.27907 0.91533,0.91533c0.7407,0.75106 1.42397,1.19542 2.28833,1.94508c0.24448,0.21204 0.34325,0.34325 0.57208,0.45767l0.11441,0.11441l0.11442,0.11442l0.11441,0.11442" id="svg_24" stroke-width="0" stroke="#000" fill="#f93b3b"/>
  <path d="m14.94623,30.70137c-0.45767,0.45767 -1.2848,1.22238 -2.40275,2.0595c-1.17287,0.87825 -2.08643,1.68602 -2.86041,2.40274c-0.35617,0.32982 -0.78585,0.6051 -1.25858,0.80091c-0.66855,0.27692 -0.91533,0.22883 -1.02975,0.22883l0,0.11442" id="svg_25" stroke-width="0" stroke="#000" fill="#f93b3b"/>
  <path d="m26.84554,21.89131c0.11442,0 0.1219,0.11201 0.22883,0.45767c0.24618,0.79576 0.22883,1.60183 0.22883,2.28833c0,0.57208 0,1.14417 0,1.71625l0,0.6865l-0.11442,0.45766l0,0.22883" id="svg_26" stroke-width="0" stroke="#000" fill="#f93b3b"/>
  <path d="m30.96453,3.92792c0,0.11442 0,0.34325 0,0.6865c0,0.80092 -0.16624,1.93803 -0.34325,3.43249c-0.16205,1.36819 -0.35065,2.21943 -0.6865,2.86041c-0.26551,0.50674 -0.57208,0.6865 -0.57208,0.80091l-0.11442,0l-0.11442,0" id="svg_27" stroke-width="0" stroke="#000" fill="#f93b3b"/>
  <text stroke="#000" transform="matrix(0.36363503279087767,0,0,0.23788258344751512,8.107404261391654,47.309392535926186) " font-weight="bold" xml:space="preserve" text-anchor="start" font-family="Oswald, sans-serif" font-size="24" id="svg_28" y="43.44607" x="21.09616" stroke-width="0" fill="#000000">Wood</text>
 </g>
</svg>