<svg version="1.1" width="235" height="165" viewBox="0 0 235 165" xmlns="http://www.w3.org/2000/svg" xmlns:svg="http://www.w3.org/2000/svg">
    <link xmlns="http://www.w3.org/1999/xhtml" rel="stylesheet" href="icons.css" type="text/css"/>
    <a href="https://www.youtube.com/channel/UCx51j17L6LBnMPG3FEJdN-A" target="_blank">
    <rect x="0" y="0" width="235" height="165" fill="transparent"/>
    <g transform="matrix(0.13333333,0,0,-0.13333333,0,165.33333)"><path id="youtube1" d="m 1723.22,1046.37 c -20.24,76.22 -79.87,136.24 -155.6,156.61 C 1430.37,1240 880,1240 880,1240 c 0,0 -550.367,0 -687.621,-37.02 C 116.656,1182.61 57.0156,1122.59 36.7773,1046.37 0,908.227 0,620 0,620 0,620 0,331.777 36.7773,193.621 57.0156,117.41 116.656,57.3906 192.379,37.0117 329.633,0 880,0 880,0 c 0,0 550.37,0 687.62,37.0117 75.73,20.3789 135.36,80.3983 155.6,156.6093 C 1760,331.777 1760,620 1760,620 c 0,0 0,288.227 -36.78,426.37" style="fill:#ed1d24;fill-opacity:1;fill-rule:nonzero;"/>
    <path id="youtube2" d="m 700,358.313 460,261.675 -460,261.7 z" style="fill:#ffffff;fill-rule:nonzero;"/>
    </g></a>
</svg>
